<svg width="23" height="15" viewBox="0 0 23 15" fill="none" xmlns="http://www.w3.org/2000/svg">
<path d="M11.5 14.0625C12.252 14.0625 12.9722 13.9478 13.6606 13.7183C14.354 13.4839 14.9839 13.1567 15.5503 12.7368C16.1216 12.312 16.6172 11.8042 17.0371 11.2134C17.4619 10.6177 17.7842 9.9585 18.0039 9.23584L18.8975 9.51416C18.6533 10.3296 18.2896 11.0742 17.8062 11.748C17.3228 12.417 16.7539 12.9932 16.0996 13.4766C15.4502 13.96 14.7324 14.3359 13.9463 14.6045C13.165 14.8682 12.3496 15 11.5 15C10.8311 15 10.1792 14.917 9.54443 14.751C8.90967 14.585 8.30908 14.3457 7.74268 14.0332C7.18115 13.7158 6.66113 13.3325 6.18262 12.8833C5.7041 12.4292 5.28906 11.9165 4.9375 11.3452V13.125H4V9.375H7.75V10.3125H5.43555C5.72363 10.8838 6.08008 11.4014 6.50488 11.8652C6.93457 12.3242 7.41309 12.7173 7.94043 13.0444C8.46777 13.3667 9.03174 13.6182 9.63232 13.7988C10.2378 13.9746 10.8604 14.0625 11.5 14.0625ZM19 1.875V5.625H15.25V4.6875H17.5645C17.2764 4.11621 16.9175 3.60107 16.4878 3.14209C16.063 2.67822 15.5869 2.28516 15.0596 1.96289C14.5322 1.63574 13.9658 1.38428 13.3604 1.2085C12.7598 1.02783 12.1396 0.9375 11.5 0.9375C10.748 0.9375 10.0254 1.05469 9.33203 1.28906C8.64355 1.51855 8.01367 1.8457 7.44238 2.27051C6.87598 2.69043 6.38037 3.19824 5.95557 3.79395C5.53564 4.38477 5.21582 5.0415 4.99609 5.76416L4.10254 5.48584C4.34668 4.67529 4.71045 3.93311 5.19385 3.25928C5.67725 2.58545 6.24365 2.00684 6.89307 1.52344C7.54736 1.04004 8.26514 0.666504 9.04639 0.402832C9.83252 0.134277 10.6504 0 11.5 0C12.1689 0 12.8208 0.0830078 13.4556 0.249023C14.0903 0.415039 14.6885 0.656738 15.25 0.974121C15.8164 1.28662 16.3389 1.66992 16.8174 2.12402C17.2959 2.57324 17.7109 3.0835 18.0625 3.65479V1.875H19Z" fill="#333333"/>
</svg>
